subject20_rfs_trial11_ground_reaction
version=1
nRows=59
nColumns=19
inDegrees=no
endheader
time	ground_force_r_vx	ground_force_r_vy	ground_force_r_vz	ground_force_r_px	ground_force_r_py	ground_force_r_pz	ground_torque_r_x	ground_torque_r_y	ground_torque_r_z	ground_force_l_vx	ground_force_l_vy	ground_force_l_vz	ground_force_l_px	ground_force_l_py	ground_force_l_pz	ground_torque_l_x	ground_torque_l_y	ground_torque_l_z
0.724500	0.000000	0.000000	0.000000	1080.442995	0.000000	870.050426	0.000000	0.000000	0.000000	-113.583361	1065.691008	57.006231	1.541772	0.000000	-0.239687	0.000000	-3.254009	0.000000
0.725000	0.000000	0.000000	0.000000	1088.520346	0.000000	876.707121	0.000000	0.000000	0.000000	-112.262958	1070.727123	57.480564	1.542096	0.000000	-0.239672	0.000000	-3.215215	0.000000
0.725500	0.000000	0.000000	0.000000	1096.637873	0.000000	883.397685	0.000000	0.000000	0.000000	-110.934089	1075.813065	58.009980	1.542414	0.000000	-0.239664	0.000000	-3.174880	0.000000
0.726000	0.000000	0.000000	0.000000	1104.795675	0.000000	890.122205	0.000000	0.000000	0.000000	-109.611090	1080.949476	58.603289	1.542725	0.000000	-0.239662	0.000000	-3.132877	0.000000
0.726500	0.000000	0.000000	0.000000	1112.993852	0.000000	896.880766	0.000000	0.000000	0.000000	-108.306056	1086.142360	59.267558	1.543032	0.000000	-0.239666	0.000000	-3.089156	0.000000
0.727000	0.000000	0.000000	0.000000	1121.232504	0.000000	903.673454	0.000000	0.000000	0.000000	-107.029592	1091.399920	60.008028	1.543334	0.000000	-0.239674	0.000000	-3.043971	0.000000
0.727500	0.000000	0.000000	0.000000	1129.511730	0.000000	910.500356	0.000000	0.000000	0.000000	-105.790983	1096.728199	60.826899	1.543633	0.000000	-0.239684	0.000000	-2.998021	0.000000
0.728000	0.000000	0.000000	0.000000	1137.831630	0.000000	917.361558	0.000000	0.000000	0.000000	-104.598193	1102.127796	61.721645	1.543928	0.000000	-0.239695	0.000000	-2.952282	0.000000
0.728500	0.000000	0.000000	0.000000	1146.192304	0.000000	924.257144	0.000000	0.000000	0.000000	-103.457317	1107.593177	62.684890	1.544221	0.000000	-0.239707	0.000000	-2.907525	0.000000
0.729000	0.000000	0.000000	0.000000	1154.593851	0.000000	931.187202	0.000000	0.000000	0.000000	-102.370471	1113.114015	63.706570	1.544510	0.000000	-0.239719	0.000000	-2.863891	0.000000
0.729500	0.000000	0.000000	0.000000	1163.036371	0.000000	938.151817	0.000000	0.000000	0.000000	-101.334306	1118.675777	64.776966	1.544796	0.000000	-0.239731	0.000000	-2.820946	0.000000
0.730000	0.000000	0.000000	0.000000	1171.519964	0.000000	945.151075	0.000000	0.000000	0.000000	-100.342168	1124.260258	65.888166	1.545080	0.000000	-0.239744	0.000000	-2.778233	0.000000
0.730500	0.000000	0.000000	0.000000	1180.044729	0.000000	952.185062	0.000000	0.000000	0.000000	-99.387637	1129.847605	67.033653	1.545360	0.000000	-0.239756	0.000000	-2.735795	0.000000
0.731000	0.000000	0.000000	0.000000	1188.610765	0.000000	959.253865	0.000000	0.000000	0.000000	-98.464756	1135.414905	68.207869	1.545639	0.000000	-0.239767	0.000000	-2.694075	0.000000
0.731500	0.000000	0.000000	0.000000	1197.218174	0.000000	966.357568	0.000000	0.000000	0.000000	-97.566041	1140.932064	69.405744	1.545915	0.000000	-0.239778	0.000000	-2.653299	0.000000
0.732000	0.000000	0.000000	0.000000	1205.867053	0.000000	973.496259	0.000000	0.000000	0.000000	-96.682738	1146.365156	70.620915	1.546192	0.000000	-0.239790	0.000000	-2.613222	0.000000
0.732500	0.000000	0.000000	0.000000	1214.557504	0.000000	980.670022	0.000000	0.000000	0.000000	-95.807158	1151.685467	71.844046	1.546471	0.000000	-0.239802	0.000000	-2.573710	0.000000
0.733000	0.000000	0.000000	0.000000	1223.289625	0.000000	987.878945	0.000000	0.000000	0.000000	-94.934123	1156.872872	73.062889	1.546750	0.000000	-0.239816	0.000000	-2.535269	0.000000
0.733500	0.000000	0.000000	0.000000	1232.063516	0.000000	995.123112	0.000000	0.000000	0.000000	-94.060404	1161.913212	74.262858	1.547032	0.000000	-0.239829	0.000000	-2.498817	0.000000
0.734000	0.000000	0.000000	0.000000	1240.879276	0.000000	1002.402611	0.000000	0.000000	0.000000	-93.182663	1166.794758	75.427568	1.547315	0.000000	-0.239843	0.000000	-2.465182	0.000000
0.734500	0.000000	0.000000	0.000000	1249.737007	0.000000	1009.717526	0.000000	0.000000	0.000000	-92.295194	1171.504889	76.540699	1.547599	0.000000	-0.239857	0.000000	-2.434881	0.000000
0.735000	0.000000	0.000000	0.000000	1258.636806	0.000000	1017.067944	0.000000	0.000000	0.000000	-91.389443	1176.029169	77.588179	1.547884	0.000000	-0.239869	0.000000	-2.408289	0.000000
0.735500	0.000000	0.000000	0.000000	1267.578775	0.000000	1024.453951	0.000000	0.000000	0.000000	-90.455827	1180.353914	78.558525	1.548172	0.000000	-0.239879	0.000000	-2.385962	0.000000
0.736000	0.000000	0.000000	0.000000	1276.563011	0.000000	1031.875633	0.000000	0.000000	0.000000	-89.485990	1184.469236	79.442610	1.548461	0.000000	-0.239886	0.000000	-2.368670	0.000000
0.736500	0.000000	0.000000	0.000000	1285.589616	0.000000	1039.333075	0.000000	0.000000	0.000000	-88.474099	1188.371125	80.234629	1.548752	0.000000	-0.239888	0.000000	-2.357048	0.000000
0.737000	0.000000	0.000000	0.000000	1294.658689	0.000000	1046.826364	0.000000	0.000000	0.000000	-87.417543	1192.062243	80.932555	1.549045	0.000000	-0.239886	0.000000	-2.351408	0.000000
0.737500	0.000000	0.000000	0.000000	1303.770329	0.000000	1054.355586	0.000000	0.000000	0.000000	-86.317134	1195.550635	81.536661	1.549340	0.000000	-0.239878	0.000000	-2.351833	0.000000
0.738000	0.000000	0.000000	0.000000	1312.924636	0.000000	1061.920827	0.000000	0.000000	0.000000	-85.176568	1198.847048	82.047749	1.549640	0.000000	-0.239864	0.000000	-2.358208	0.000000
0.738500	0.000000	0.000000	0.000000	1322.121710	0.000000	1069.522172	0.000000	0.000000	0.000000	-84.001706	1201.962127	82.466399	1.549945	0.000000	-0.239845	0.000000	-2.370280	0.000000
0.739000	0.000000	0.000000	0.000000	1331.361650	0.000000	1077.159708	0.000000	0.000000	0.000000	-82.800659	1204.905793	82.792846	1.550255	0.000000	-0.239822	0.000000	-2.387769	0.000000
0.739500	0.000000	0.000000	0.000000	1340.644556	0.000000	1084.833520	0.000000	0.000000	0.000000	-81.584071	1207.689857	83.027061	1.550570	0.000000	-0.239793	0.000000	-2.410320	0.000000
0.740000	0.000000	0.000000	0.000000	1349.970528	0.000000	1092.543695	0.000000	0.000000	0.000000	-80.364052	1210.330795	83.168880	1.550889	0.000000	-0.239760	0.000000	-2.437480	0.000000
0.740500	0.000000	0.000000	0.000000	1359.339665	0.000000	1100.290318	0.000000	0.000000	0.000000	-79.152360	1212.849232	83.218222	1.551211	0.000000	-0.239723	0.000000	-2.468892	0.000000
0.741000	0.000000	0.000000	0.000000	1368.752067	0.000000	1108.073476	0.000000	0.000000	0.000000	-77.959285	1215.266390	83.176180	1.551535	0.000000	-0.239681	0.000000	-2.504585	0.000000
0.741500	0.000000	0.000000	0.000000	1378.207834	0.000000	1115.893254	0.000000	0.000000	0.000000	-76.793227	1217.600864	83.046557	1.551861	0.000000	-0.239634	0.000000	-2.544995	0.000000
0.742000	0.000000	0.000000	0.000000	1387.707065	0.000000	1123.749738	0.000000	0.000000	0.000000	-75.660313	1219.867319	82.836084	1.552187	0.000000	-0.239582	0.000000	-2.590560	0.000000
0.742500	0.000000	0.000000	0.000000	1397.249860	0.000000	1131.643015	0.000000	0.000000	0.000000	-74.563960	1222.075678	82.553662	1.552514	0.000000	-0.239524	0.000000	-2.641256	0.000000
0.743000	0.000000	0.000000	0.000000	1406.836318	0.000000	1139.573170	0.000000	0.000000	0.000000	-73.504511	1224.230294	82.209204	1.552843	0.000000	-0.239461	0.000000	-2.696577	0.000000
0.743500	0.000000	0.000000	0.000000	1416.466540	0.000000	1147.540290	0.000000	0.000000	0.000000	-72.478961	1226.330868	81.811586	1.553173	0.000000	-0.239394	0.000000	-2.755865	0.000000
0.744000	0.000000	0.000000	0.000000	1426.140625	0.000000	1155.544459	0.000000	0.000000	0.000000	-71.481593	1228.376366	81.367487	1.553504	0.000000	-0.239324	0.000000	-2.818552	0.000000
0.744500	0.000000	0.000000	0.000000	1435.858672	0.000000	1163.585765	0.000000	0.000000	0.000000	-70.505580	1230.367956	80.882269	1.553835	0.000000	-0.239251	0.000000	-2.884173	0.000000
0.745000	0.000000	0.000000	0.000000	1445.620781	0.000000	1171.664293	0.000000	0.000000	0.000000	-69.543573	1232.306696	80.360836	1.554165	0.000000	-0.239176	0.000000	-2.952253	0.000000
0.745500	0.000000	0.000000	0.000000	1455.427053	0.000000	1179.780130	0.000000	0.000000	0.000000	-68.586812	1234.190054	79.807147	1.554493	0.000000	-0.239101	0.000000	-3.022136	0.000000
0.746000	0.000000	0.000000	0.000000	1465.277585	0.000000	1187.933360	0.000000	0.000000	0.000000	-67.625602	1236.012060	79.223802	1.554819	0.000000	-0.239026	0.000000	-3.093105	0.000000
0.746500	0.000000	0.000000	0.000000	1475.172479	0.000000	1196.124070	0.000000	0.000000	0.000000	-66.651763	1237.766109	78.613493	1.555143	0.000000	-0.238953	0.000000	-3.164687	0.000000
0.747000	0.000000	0.000000	0.000000	1485.111834	0.000000	1204.352347	0.000000	0.000000	0.000000	-65.659971	1239.448020	77.981047	1.555464	0.000000	-0.238881	0.000000	-3.236636	0.000000
0.747500	0.000000	0.000000	0.000000	1495.095749	0.000000	1212.618275	0.000000	0.000000	0.000000	-64.647032	1241.057441	77.333124	1.555782	0.000000	-0.238812	0.000000	-3.308733	0.000000
0.748000	0.000000	0.000000	0.000000	1505.124325	0.000000	1220.921942	0.000000	0.000000	0.000000	-63.610821	1242.597320	76.676486	1.556095	0.000000	-0.238744	0.000000	-3.380681	0.000000
0.748500	0.000000	0.000000	0.000000	1515.197660	0.000000	1229.263432	0.000000	0.000000	0.000000	-62.549552	1244.072406	76.017672	1.556405	0.000000	-0.238678	0.000000	-3.451988	0.000000
0.749000	0.000000	0.000000	0.000000	1525.315855	0.000000	1237.642833	0.000000	0.000000	0.000000	-61.461767	1245.487029	75.363688	1.556712	0.000000	-0.238613	0.000000	-3.521917	0.000000
0.749500	0.000000	0.000000	0.000000	1535.479008	0.000000	1246.060229	0.000000	0.000000	0.000000	-60.347436	1246.843631	74.721963	1.557017	0.000000	-0.238548	0.000000	-3.589688	0.000000
0.750000	0.000000	0.000000	0.000000	1545.687221	0.000000	1254.515707	0.000000	0.000000	0.000000	-59.208868	1248.142656	74.099231	1.557321	0.000000	-0.238483	0.000000	-3.654882	0.000000
0.750500	0.000000	0.000000	0.000000	1555.940592	0.000000	1263.009353	0.000000	0.000000	0.000000	-58.049869	1249.382988	73.500547	1.557625	0.000000	-0.238417	0.000000	-3.717594	0.000000
0.751000	0.000000	0.000000	0.000000	1566.239221	0.000000	1271.541253	0.000000	0.000000	0.000000	-56.873957	1250.563420	72.929642	1.557930	0.000000	-0.238352	0.000000	-3.778051	0.000000
0.751500	0.000000	0.000000	0.000000	1576.583207	0.000000	1280.111492	0.000000	0.000000	0.000000	-55.683439	1251.683757	72.389548	1.558234	0.000000	-0.238287	0.000000	-3.836147	0.000000
0.752000	0.000000	0.000000	0.000000	1586.972651	0.000000	1288.720157	0.000000	0.000000	0.000000	-54.479554	1252.744085	71.882329	1.558539	0.000000	-0.238224	0.000000	-3.891439	0.000000
0.752500	0.000000	0.000000	0.000000	1597.407652	0.000000	1297.367334	0.000000	0.000000	0.000000	-53.262786	1253.744155	71.409392	1.558842	0.000000	-0.238162	0.000000	-3.943380	0.000000
0.753000	0.000000	0.000000	0.000000	1607.888310	0.000000	1306.053108	0.000000	0.000000	0.000000	-52.033407	1254.684194	70.973005	1.559146	0.000000	-0.238102	0.000000	-3.991374	0.000000
0.753500	0.000000	0.000000	0.000000	1618.414724	0.000000	1314.777567	0.000000	0.000000	0.000000	-50.792918	1255.565175	70.577205	1.559449	0.000000	-0.238045	0.000000	-4.034735	0.000000
